<svg version="1.1" viewBox="0.0 0.0 192.0 192.0" fill="none" stroke="none" stroke-linecap="square" stroke-miterlimit="10" xmlns:xlink="http://www.w3.org/1999/xlink" xmlns="http://www.w3.org/2000/svg"><clipPath id="p.0"><path d="m0 0l192.0 0l0 192.0l-192.0 0l0 -192.0z" clip-rule="nonzero"/></clipPath><g clip-path="url(#p.0)"><path fill="#000000" d="m0 0l192.0 0l0 192.0l-192.0 0z" fill-rule="evenodd"/><path fill="#000000" fill-opacity="0.0" d="m0.007874016 0l192.0 0l0 192.0l-192.0 0z" fill-rule="evenodd"/><path fill="#ffffff" d="m54.542206 145.59375q-11.734375 0 -20.40625 -3.859375q-8.65625 -3.875 -13.984375 -10.53125l11.59375 -12.796875q5.0625 5.59375 11.125 8.265625q6.078125 2.65625 12.34375 2.65625q7.1875 0 10.921875 -3.1875q3.734375 -3.203125 3.734375 -9.203125q0 -4.9375 -2.875 -7.46875q-2.859375 -2.53125 -9.65625 -3.59375l-9.734375 -1.609375q-12.53125 -2.125 -18.140625 -9.25q-5.59375 -7.140625 -5.59375 -17.40625q0 -13.46875 8.796875 -20.859375q8.8125 -7.40625 24.671875 -7.40625q10.796875 0 18.796875 3.328125q8.0 3.328125 12.9375 9.0625l-11.328125 12.671875q-3.734375 -4.140625 -8.8125 -6.46875q-5.0625 -2.328125 -11.453125 -2.328125q-13.46875 0 -13.46875 11.0625q0 4.796875 3.0 7.203125q3.0 2.390625 9.796875 3.59375l9.734375 1.734375q11.328125 2.0 17.453125 8.53125q6.140625 6.53125 6.140625 17.59375q0 6.546875 -2.265625 12.078125q-2.265625 5.53125 -6.796875 9.59375q-4.53125 4.0625 -11.140625 6.328125q-6.59375 2.265625 -15.390625 2.265625zm51.606293 -1.59375l0 -93.0625l35.984375 0q6.8125 0 12.140625 2.0625q5.328125 2.0625 9.0 5.9375q3.671875 3.859375 5.53125 9.328125q1.859375 5.46875 1.859375 12.265625q0 6.796875 -1.859375 12.265625q-1.859375 5.46875 -5.53125 9.34375q-3.671875 3.859375 -9.0 5.9375q-5.328125 2.0625 -12.140625 2.0625l-15.859375 0l0 33.859375l-20.125 0zm20.125 -50.0l10.796875 0q7.0625 0 9.796875 -2.65625q2.734375 -2.671875 2.734375 -8.8125l0 -4.0q0 -6.125 -2.734375 -8.796875q-2.734375 -2.671875 -9.796875 -2.671875l-10.796875 0l0 26.9375z" fill-rule="nonzero"/></g></svg>